<?xml version="1.0" encoding="us-ascii" standalone="no"?><svg xmlns="http://www.w3.org/2000/svg" xmlns:xlink="http://www.w3.org/1999/xlink" contentStyleType="text/css" height="311px" preserveAspectRatio="none" style="width:1171px;height:311px;background:#FFFFFF;" version="1.1" viewBox="0 0 1171 311" width="1171px" zoomAndPan="magnify"><defs/><g><!--cluster jmerle/opentelemetry-stack--><g id="cluster_jmerle/opentelemetry-stack"><rect fill="none" height="298" rx="2.5" ry="2.5" style="stroke:#181818;stroke-width:1.0;" width="587" x="310" y="7"/><text fill="#000000" font-family="sans-serif" font-size="14" font-weight="bold" lengthAdjust="spacing" textLength="195" x="506" y="23.9659">jmerle/opentelemetry-stack</text></g><!--entity OTelCol--><g id="elem_OTelCol"><rect fill="#F1F1F1" height="58.1358" rx="2.5" ry="2.5" style="stroke:#181818;stroke-width:0.5;" width="193" x="326" y="138"/><text fill="#000000" font-family="sans-serif" font-size="14" font-weight="bold" lengthAdjust="spacing" textLength="173" x="336" y="162.9659">OpenTelemetry Collector</text><text fill="#000000" font-family="sans-serif" font-size="14" lengthAdjust="spacing" textLength="57" x="394" y="182.0339">Ingester</text></g><!--entity VictoriaMetrics--><g id="elem_VictoriaMetrics"><rect fill="#F1F1F1" height="58.1358" rx="2.5" ry="2.5" style="stroke:#181818;stroke-width:0.5;" width="137" x="579" y="231"/><text fill="#000000" font-family="sans-serif" font-size="14" font-weight="bold" lengthAdjust="spacing" textLength="104" x="595.5" y="255.9659">VictoriaMetrics</text><text fill="#000000" font-family="sans-serif" font-size="14" lengthAdjust="spacing" textLength="117" x="589" y="275.0339">Metrics Database</text></g><!--entity Loki--><g id="elem_Loki"><rect fill="#F1F1F1" height="58.1358" rx="2.5" ry="2.5" style="stroke:#181818;stroke-width:0.5;" width="118" x="588.5" y="138"/><text fill="#000000" font-family="sans-serif" font-size="14" font-weight="bold" lengthAdjust="spacing" textLength="30" x="632.5" y="162.9659">Loki</text><text fill="#000000" font-family="sans-serif" font-size="14" lengthAdjust="spacing" textLength="98" x="598.5" y="182.0339">Logs Database</text></g><!--entity Tempo--><g id="elem_Tempo"><rect fill="#F1F1F1" height="58.1358" rx="2.5" ry="2.5" style="stroke:#181818;stroke-width:0.5;" width="131" x="582" y="45"/><text fill="#000000" font-family="sans-serif" font-size="14" font-weight="bold" lengthAdjust="spacing" textLength="48" x="623.5" y="69.9659">Tempo</text><text fill="#000000" font-family="sans-serif" font-size="14" lengthAdjust="spacing" textLength="111" x="592" y="89.0339">Traces Database</text></g><!--entity Grafana--><g id="elem_Grafana"><rect fill="#F1F1F1" height="58.1358" rx="2.5" ry="2.5" style="stroke:#181818;stroke-width:0.5;" width="105" x="776" y="138"/><text fill="#000000" font-family="sans-serif" font-size="14" font-weight="bold" lengthAdjust="spacing" textLength="54" x="801.5" y="162.9659">Grafana</text><text fill="#000000" font-family="sans-serif" font-size="14" lengthAdjust="spacing" textLength="85" x="786" y="182.0339">Visualization</text></g><!--entity Apps--><g id="elem_Apps"><rect fill="#F1F1F1" height="39.0679" rx="2.5" ry="2.5" style="stroke:#181818;stroke-width:0.5;" width="106" x="7" y="148.5"/><text fill="#000000" font-family="sans-serif" font-size="14" font-weight="bold" lengthAdjust="spacing" textLength="86" x="17" y="173.4659">Applications</text></g><!--entity Humans--><g id="elem_Humans"><rect fill="#F1F1F1" height="39.0679" rx="2.5" ry="2.5" style="stroke:#181818;stroke-width:0.5;" width="78" x="1087" y="147.5"/><text fill="#000000" font-family="sans-serif" font-size="14" font-weight="bold" lengthAdjust="spacing" textLength="58" x="1097" y="172.4659">Humans</text></g><!--entity Port4317--><g id="elem_Port4317"><rect fill="#F1F1F1" height="58.1358" rx="2.5" ry="2.5" style="stroke:#181818;stroke-width:0.5;" width="93" x="173" y="92"/><text fill="#000000" font-family="sans-serif" font-size="14" font-weight="bold" lengthAdjust="spacing" textLength="66" x="186.5" y="116.9659">Port 4317</text><text fill="#000000" font-family="sans-serif" font-size="14" lengthAdjust="spacing" textLength="73" x="183" y="136.0339">OTLP gRPC</text></g><!--entity Port4318--><g id="elem_Port4318"><rect fill="#F1F1F1" height="58.1358" rx="2.5" ry="2.5" style="stroke:#181818;stroke-width:0.5;" width="92" x="173.5" y="185"/><text fill="#000000" font-family="sans-serif" font-size="14" font-weight="bold" lengthAdjust="spacing" textLength="66" x="186.5" y="209.9659">Port 4318</text><text fill="#000000" font-family="sans-serif" font-size="14" lengthAdjust="spacing" textLength="72" x="183.5" y="229.0339">OTLP HTTP</text></g><!--entity Port3000--><g id="elem_Port3000"><rect fill="#F1F1F1" height="58.1358" rx="2.5" ry="2.5" style="stroke:#181818;stroke-width:0.5;" width="86" x="941" y="138"/><text fill="#000000" font-family="sans-serif" font-size="14" font-weight="bold" lengthAdjust="spacing" textLength="66" x="951" y="162.9659">Port 3000</text><text fill="#000000" font-family="sans-serif" font-size="14" lengthAdjust="spacing" textLength="54" x="957" y="182.0339">Grafana</text></g><!--link Apps to Port4317--><g id="link_Apps_Port4317"><path d="M113.01,152.48 C132.36,146.7 148.4103,141.9151 167.1503,136.3251 " fill="none" id="Apps-to-Port4317" style="stroke:#181818;stroke-width:1.0;"/><polygon fill="#181818" points="172.9,134.61,163.1321,133.3495,168.1086,136.0392,165.4189,141.0157,172.9,134.61" style="stroke:#181818;stroke-width:1.0;"/></g><!--link Apps to Port4318--><g id="link_Apps_Port4318"><path d="M113.01,183.19 C132.54,188.89 148.8102,193.6494 167.6602,199.1494 " fill="none" id="Apps-to-Port4318" style="stroke:#181818;stroke-width:1.0;"/><polygon fill="#181818" points="173.42,200.83,165.9006,194.4692,168.6201,199.4295,163.6599,202.149,173.42,200.83" style="stroke:#181818;stroke-width:1.0;"/></g><!--link Port4317 to OTelCol--><g id="link_Port4317_OTelCol"><path d="M266.11,131.44 C283.95,135.52 299.2613,139.0211 320.1413,143.8011 " fill="none" id="Port4317-to-OTelCol" style="stroke:#181818;stroke-width:1.0;"/><polygon fill="#181818" points="325.99,145.14,318.1096,139.2325,321.1161,144.0242,316.3243,147.0307,325.99,145.14" style="stroke:#181818;stroke-width:1.0;"/></g><!--link Port4318 to OTelCol--><g id="link_Port4318_OTelCol"><path d="M265.61,203.45 C283.55,199.26 299.0676,195.6264 320.1476,190.6964 " fill="none" id="Port4318-to-OTelCol" style="stroke:#181818;stroke-width:1.0;"/><polygon fill="#181818" points="325.99,189.33,316.3156,187.4846,321.1214,190.4686,318.1374,195.2744,325.99,189.33" style="stroke:#181818;stroke-width:1.0;"/></g><!--link OTelCol to VictoriaMetrics--><g id="link_OTelCol_VictoriaMetrics"><path d="M493.14,196.04 C520.49,207.45 546.2324,218.1803 573.3724,229.5003 " fill="none" id="OTelCol-to-VictoriaMetrics" style="stroke:#181818;stroke-width:1.0;"/><polygon fill="#181818" points="578.91,231.81,572.1434,224.6537,574.2953,229.8852,569.0638,232.0372,578.91,231.81" style="stroke:#181818;stroke-width:1.0;"/></g><!--link OTelCol to Tempo--><g id="link_OTelCol_Tempo"><path d="M493.14,137.96 C521.51,126.13 548.5725,114.8401 576.4025,103.2301 " fill="none" id="OTelCol-to-Tempo" style="stroke:#181818;stroke-width:1.0;"/><polygon fill="#181818" points="581.94,100.92,572.0937,100.6935,577.3254,102.8451,575.1739,108.0768,581.94,100.92" style="stroke:#181818;stroke-width:1.0;"/></g><!--link OTelCol to Loki--><g id="link_OTelCol_Loki"><path d="M519.04,167 C542.57,167 561.06,167 582.21,167 " fill="none" id="OTelCol-to-Loki" style="stroke:#181818;stroke-width:1.0;"/><polygon fill="#181818" points="588.21,167,579.21,163,583.21,167,579.21,171,588.21,167" style="stroke:#181818;stroke-width:1.0;"/></g><!--reverse link VictoriaMetrics to Grafana--><g id="link_VictoriaMetrics_Grafana"><path d="M709.9738,228.0628 C732.7338,216.2328 753.53,205.43 775.81,193.85 " fill="none" id="VictoriaMetrics-backto-Grafana" style="stroke:#181818;stroke-width:1.0;"/><polygon fill="#181818" points="704.65,230.83,714.4805,230.2285,709.0865,228.524,710.7909,223.1301,704.65,230.83" style="stroke:#181818;stroke-width:1.0;"/></g><!--reverse link Tempo to Grafana--><g id="link_Tempo_Grafana"><path d="M709.9738,105.9372 C732.7338,117.7672 753.53,128.57 775.81,140.15 " fill="none" id="Tempo-backto-Grafana" style="stroke:#181818;stroke-width:1.0;"/><polygon fill="#181818" points="704.65,103.17,710.7909,110.8699,709.0865,105.476,714.4805,103.7715,704.65,103.17" style="stroke:#181818;stroke-width:1.0;"/></g><!--reverse link Loki to Grafana--><g id="link_Loki_Grafana"><path d="M712.62,167 C734.87,167 754.09,167 775.71,167 " fill="none" id="Loki-backto-Grafana" style="stroke:#181818;stroke-width:1.0;"/><polygon fill="#181818" points="706.62,167,715.62,171,711.62,167,715.62,163,706.62,167" style="stroke:#181818;stroke-width:1.0;"/></g><!--reverse link Grafana to Port3000--><g id="link_Grafana_Port3000"><path d="M887.04,167 C906.38,167 922.11,167 940.53,167 " fill="none" id="Grafana-backto-Port3000" style="stroke:#181818;stroke-width:1.0;"/><polygon fill="#181818" points="881.04,167,890.04,171,886.04,167,890.04,163,881.04,167" style="stroke:#181818;stroke-width:1.0;"/></g><!--reverse link Port3000 to Humans--><g id="link_Port3000_Humans"><path d="M1033,167 C1052.01,167 1068.32,167 1086.84,167 " fill="none" id="Port3000-backto-Humans" style="stroke:#181818;stroke-width:1.0;"/><polygon fill="#181818" points="1027,167,1036,171,1032,167,1036,163,1027,167" style="stroke:#181818;stroke-width:1.0;"/></g><!--SRC=[TP9BQyCm48Jl-XLBxYOfAJI740WfD8MKc69owcNZRbmricGa1VgW_xrwsAajN1-CD3FVMAmbw6J1Aj2yUhFmoZMLbYl9p9dB1ZNMy4edl0XRq8TT2rx9cgI5qhr8C-RZA2j1C5aUL-kc4Rn4Ns2Mq-Dg0cZ0YIR9RIyrzX9ncvRbIbkudT_S-ToBt1Ux7AhdV1CGRthl7sRHOxP5aVUPnHWpdyrcaNdGU4A9Ly8xWwEzrwG5JLNZHo2e9gi_CsEnF4_Wcu5xXlrx5oow86oK4CvMEdxjKLPat2J3v_OkvloHZWFt2CSdry5B4zbs0_TeyOY6GaUI7EdQgJEF1JjL9RJtHf22waP5fj1OKa85UmHhHnd10pSN5Fmht8w0jJRxOSpV4SYorTz_JPK5OvqNv6vMdJqGMRi8OZgHlXTFtbV215Z2m3BBhiSDp43np41WxIA8rqlKBO8Qx_ml]--></g></svg>