<?xml version="1.0" encoding="us-ascii" standalone="no"?><svg xmlns="http://www.w3.org/2000/svg" xmlns:xlink="http://www.w3.org/1999/xlink" contentStyleType="text/css" height="404px" preserveAspectRatio="none" style="width:1171px;height:404px;background:#FFFFFF;" version="1.1" viewBox="0 0 1171 404" width="1171px" zoomAndPan="magnify"><defs/><g><!--cluster jmerle/opentelemetry-stack--><g id="cluster_jmerle/opentelemetry-stack"><rect fill="none" height="391" rx="2.5" ry="2.5" style="stroke:#181818;stroke-width:1.0;" width="587" x="310" y="7"/><text fill="#000000" font-family="sans-serif" font-size="14" font-weight="bold" lengthAdjust="spacing" textLength="195" x="506" y="23.9659">jmerle/opentelemetry-stack</text></g><!--entity OTelCol--><g id="elem_OTelCol"><rect fill="#F1F1F1" height="58.1358" rx="2.5" ry="2.5" style="stroke:#181818;stroke-width:0.5;" width="193" x="326" y="231"/><text fill="#000000" font-family="sans-serif" font-size="14" font-weight="bold" lengthAdjust="spacing" textLength="173" x="336" y="255.9659">OpenTelemetry Collector</text><text fill="#000000" font-family="sans-serif" font-size="14" lengthAdjust="spacing" textLength="57" x="394" y="275.0339">Ingester</text></g><!--entity VictoriaMetrics--><g id="elem_VictoriaMetrics"><rect fill="#F1F1F1" height="58.1358" rx="2.5" ry="2.5" style="stroke:#181818;stroke-width:0.5;" width="137" x="579" y="45"/><text fill="#000000" font-family="sans-serif" font-size="14" font-weight="bold" lengthAdjust="spacing" textLength="104" x="595.5" y="69.9659">VictoriaMetrics</text><text fill="#000000" font-family="sans-serif" font-size="14" lengthAdjust="spacing" textLength="117" x="589" y="89.0339">Metrics Database</text></g><!--entity Loki--><g id="elem_Loki"><rect fill="#F1F1F1" height="58.1358" rx="2.5" ry="2.5" style="stroke:#181818;stroke-width:0.5;" width="118" x="588.5" y="231"/><text fill="#000000" font-family="sans-serif" font-size="14" font-weight="bold" lengthAdjust="spacing" textLength="30" x="632.5" y="255.9659">Loki</text><text fill="#000000" font-family="sans-serif" font-size="14" lengthAdjust="spacing" textLength="98" x="598.5" y="275.0339">Logs Database</text></g><!--entity Tempo--><g id="elem_Tempo"><rect fill="#F1F1F1" height="58.1358" rx="2.5" ry="2.5" style="stroke:#181818;stroke-width:0.5;" width="131" x="582" y="138"/><text fill="#000000" font-family="sans-serif" font-size="14" font-weight="bold" lengthAdjust="spacing" textLength="48" x="623.5" y="162.9659">Tempo</text><text fill="#000000" font-family="sans-serif" font-size="14" lengthAdjust="spacing" textLength="111" x="592" y="182.0339">Traces Database</text></g><!--entity Pyroscope--><g id="elem_Pyroscope"><rect fill="#F1F1F1" height="58.1358" rx="2.5" ry="2.5" style="stroke:#181818;stroke-width:0.5;" width="137" x="579" y="324"/><text fill="#000000" font-family="sans-serif" font-size="14" font-weight="bold" lengthAdjust="spacing" textLength="72" x="611.5" y="348.9659">Pyroscope</text><text fill="#000000" font-family="sans-serif" font-size="14" lengthAdjust="spacing" textLength="117" x="589" y="368.0339">Profiles Database</text></g><!--entity Grafana--><g id="elem_Grafana"><rect fill="#F1F1F1" height="58.1358" rx="2.5" ry="2.5" style="stroke:#181818;stroke-width:0.5;" width="105" x="776" y="185"/><text fill="#000000" font-family="sans-serif" font-size="14" font-weight="bold" lengthAdjust="spacing" textLength="54" x="801.5" y="209.9659">Grafana</text><text fill="#000000" font-family="sans-serif" font-size="14" lengthAdjust="spacing" textLength="85" x="786" y="229.0339">Visualization</text></g><!--entity Apps--><g id="elem_Apps"><rect fill="#F1F1F1" height="39.0679" rx="2.5" ry="2.5" style="stroke:#181818;stroke-width:0.5;" width="106" x="7" y="240.5"/><text fill="#000000" font-family="sans-serif" font-size="14" font-weight="bold" lengthAdjust="spacing" textLength="86" x="17" y="265.4659">Applications</text></g><!--entity Humans--><g id="elem_Humans"><rect fill="#F1F1F1" height="39.0679" rx="2.5" ry="2.5" style="stroke:#181818;stroke-width:0.5;" width="78" x="1087" y="194.5"/><text fill="#000000" font-family="sans-serif" font-size="14" font-weight="bold" lengthAdjust="spacing" textLength="58" x="1097" y="219.4659">Humans</text></g><!--entity Port4317--><g id="elem_Port4317"><rect fill="#F1F1F1" height="58.1358" rx="2.5" ry="2.5" style="stroke:#181818;stroke-width:0.5;" width="93" x="173" y="138"/><text fill="#000000" font-family="sans-serif" font-size="14" font-weight="bold" lengthAdjust="spacing" textLength="66" x="186.5" y="162.9659">Port 4317</text><text fill="#000000" font-family="sans-serif" font-size="14" lengthAdjust="spacing" textLength="73" x="183" y="182.0339">OTLP gRPC</text></g><!--entity Port4318--><g id="elem_Port4318"><rect fill="#F1F1F1" height="58.1358" rx="2.5" ry="2.5" style="stroke:#181818;stroke-width:0.5;" width="92" x="173.5" y="231"/><text fill="#000000" font-family="sans-serif" font-size="14" font-weight="bold" lengthAdjust="spacing" textLength="66" x="186.5" y="255.9659">Port 4318</text><text fill="#000000" font-family="sans-serif" font-size="14" lengthAdjust="spacing" textLength="72" x="183.5" y="275.0339">OTLP HTTP</text></g><!--entity Port4040--><g id="elem_Port4040"><rect fill="#F1F1F1" height="58.1358" rx="2.5" ry="2.5" style="stroke:#181818;stroke-width:0.5;" width="88" x="175.5" y="324"/><text fill="#000000" font-family="sans-serif" font-size="14" font-weight="bold" lengthAdjust="spacing" textLength="66" x="186.5" y="348.9659">Port 4040</text><text fill="#000000" font-family="sans-serif" font-size="14" lengthAdjust="spacing" textLength="68" x="185.5" y="368.0339">Pyroscope</text></g><!--entity Port3000--><g id="elem_Port3000"><rect fill="#F1F1F1" height="58.1358" rx="2.5" ry="2.5" style="stroke:#181818;stroke-width:0.5;" width="86" x="941" y="185"/><text fill="#000000" font-family="sans-serif" font-size="14" font-weight="bold" lengthAdjust="spacing" textLength="66" x="951" y="209.9659">Port 3000</text><text fill="#000000" font-family="sans-serif" font-size="14" lengthAdjust="spacing" textLength="54" x="957" y="229.0339">Grafana</text></g><!--link Apps to Port4317--><g id="link_Apps_Port4317"><path d="M94.4,240.28 C117.25,226.79 142.6535,211.7908 167.7335,196.9808 " fill="none" id="Apps-to-Port4317" style="stroke:#181818;stroke-width:1.0;"/><polygon fill="#181818" points="172.9,193.93,163.1164,195.062,168.5946,196.4724,167.1842,201.9506,172.9,193.93" style="stroke:#181818;stroke-width:1.0;"/></g><!--link Apps to Port4318--><g id="link_Apps_Port4318"><path d="M113.01,260 C132.54,260 148.57,260 167.42,260 " fill="none" id="Apps-to-Port4318" style="stroke:#181818;stroke-width:1.0;"/><polygon fill="#181818" points="173.42,260,164.42,256,168.42,260,164.42,264,173.42,260" style="stroke:#181818;stroke-width:1.0;"/></g><!--link Apps to Port4040--><g id="link_Apps_Port4040"><path d="M94.4,279.72 C117.97,293.64 144.5937,309.3589 170.0937,324.4189 " fill="none" id="Apps-to-Port4040" style="stroke:#181818;stroke-width:1.0;"/><polygon fill="#181818" points="175.26,327.47,169.5447,319.4491,170.9548,324.9274,165.4765,326.3375,175.26,327.47" style="stroke:#181818;stroke-width:1.0;"/></g><!--link Port4317 to OTelCol--><g id="link_Port4317_OTelCol"><path d="M266.11,188.1 C293.45,200.75 323.1548,214.4901 353.1048,228.3501 " fill="none" id="Port4317-to-OTelCol" style="stroke:#181818;stroke-width:1.0;"/><polygon fill="#181818" points="358.55,230.87,352.0621,223.46,354.0123,228.7701,348.7023,230.7203,358.55,230.87" style="stroke:#181818;stroke-width:1.0;"/></g><!--link Port4318 to OTelCol--><g id="link_Port4318_OTelCol"><path d="M265.61,260 C283.55,260 298.91,260 319.99,260 " fill="none" id="Port4318-to-OTelCol" style="stroke:#181818;stroke-width:1.0;"/><polygon fill="#181818" points="325.99,260,316.99,256,320.99,260,316.99,264,325.99,260" style="stroke:#181818;stroke-width:1.0;"/></g><!--link Port4040 to OTelCol--><!--link Port4040 to Pyroscope--><g id="link_Port4040_Pyroscope"><path d="M263.69,353 C337.94,353 484.3,353 572.77,353 " fill="none" id="Port4040-to-Pyroscope" style="stroke:#181818;stroke-width:1.0;"/><polygon fill="#181818" points="578.77,353,569.77,349,573.77,353,569.77,357,578.77,353" style="stroke:#181818;stroke-width:1.0;"/></g><!--link OTelCol to VictoriaMetrics--><g id="link_OTelCol_VictoriaMetrics"><path d="M453.41,230.84 C483.97,201.61 533.28,155.89 579,120 C586.25,114.31 589.2528,111.9782 597.0328,106.5382 " fill="none" id="OTelCol-to-VictoriaMetrics" style="stroke:#181818;stroke-width:1.0;"/><polygon fill="#181818" points="601.95,103.1,592.2821,104.9792,597.8524,105.9652,596.8664,111.5355,601.95,103.1" style="stroke:#181818;stroke-width:1.0;"/></g><!--link OTelCol to Tempo--><g id="link_OTelCol_Tempo"><path d="M493.14,230.96 C521.51,219.13 548.5725,207.8401 576.4025,196.2301 " fill="none" id="OTelCol-to-Tempo" style="stroke:#181818;stroke-width:1.0;"/><polygon fill="#181818" points="581.94,193.92,572.0937,193.6935,577.3254,195.8451,575.1739,201.0768,581.94,193.92" style="stroke:#181818;stroke-width:1.0;"/></g><!--link OTelCol to Loki--><g id="link_OTelCol_Loki"><path d="M519.04,260 C542.57,260 561.06,260 582.21,260 " fill="none" id="OTelCol-to-Loki" style="stroke:#181818;stroke-width:1.0;"/><polygon fill="#181818" points="588.21,260,579.21,256,583.21,260,579.21,264,588.21,260" style="stroke:#181818;stroke-width:1.0;"/></g><!--link OTelCol to Pyroscope--><!--reverse link VictoriaMetrics to Grafana--><g id="link_VictoriaMetrics_Grafana"><path d="M697.4611,106.4682 C705.3811,111.9582 708.55,114.34 716,120 C743.22,140.67 772.74,165.68 794.56,184.7 " fill="none" id="VictoriaMetrics-backto-Grafana" style="stroke:#181818;stroke-width:1.0;"/><polygon fill="#181818" points="692.53,103.05,697.6479,111.4647,696.6393,105.8985,702.2055,104.8898,692.53,103.05" style="stroke:#181818;stroke-width:1.0;"/></g><!--reverse link Tempo to Grafana--><g id="link_Tempo_Grafana"><path d="M718.9238,185.492 C739.5538,190.902 756.3,195.3 775.88,200.45 " fill="none" id="Tempo-backto-Grafana" style="stroke:#181818;stroke-width:1.0;"/><polygon fill="#181818" points="713.12,183.97,720.811,190.1221,717.9565,185.2383,722.8403,182.3838,713.12,183.97" style="stroke:#181818;stroke-width:1.0;"/></g><!--reverse link Loki to Grafana--><g id="link_Loki_Grafana"><path d="M712.431,243.5761 C734.681,237.8561 754.09,232.87 775.71,227.31 " fill="none" id="Loki-backto-Grafana" style="stroke:#181818;stroke-width:1.0;"/><polygon fill="#181818" points="706.62,245.07,716.3325,246.7032,711.4625,243.8251,714.3406,238.9551,706.62,245.07" style="stroke:#181818;stroke-width:1.0;"/></g><!--reverse link Pyroscope to Grafana--><g id="link_Pyroscope_Grafana"><path d="M696.272,320.4801 C704.532,314.6501 708.15,311.96 716,306 C742.59,285.83 771.65,261.78 793.43,243.33 " fill="none" id="Pyroscope-backto-Grafana" style="stroke:#181818;stroke-width:1.0;"/><polygon fill="#181818" points="691.37,323.94,701.0295,322.0182,695.455,321.0568,696.4164,315.4822,691.37,323.94" style="stroke:#181818;stroke-width:1.0;"/></g><!--reverse link Grafana to Port3000--><g id="link_Grafana_Port3000"><path d="M887.04,214 C906.38,214 922.11,214 940.53,214 " fill="none" id="Grafana-backto-Port3000" style="stroke:#181818;stroke-width:1.0;"/><polygon fill="#181818" points="881.04,214,890.04,218,886.04,214,890.04,210,881.04,214" style="stroke:#181818;stroke-width:1.0;"/></g><!--reverse link Port3000 to Humans--><g id="link_Port3000_Humans"><path d="M1033,214 C1052.01,214 1068.32,214 1086.84,214 " fill="none" id="Port3000-backto-Humans" style="stroke:#181818;stroke-width:1.0;"/><polygon fill="#181818" points="1027,214,1036,218,1032,214,1036,210,1027,214" style="stroke:#181818;stroke-width:1.0;"/></g><!--SRC=[TPDVQy8m5CNVyoaklXST2lD1XE5W3XoMKVQoxU5QOyrCav94c1lxxikVjhPPvqDfppc_4t8JEJqOC18KAuu6zapHt30fY3unKQ724lRqW6TkClffxZWhH4c5WTm-g2B4nL4KdC9eiLlULHLdERe2lHZlbYD03LRKKMvzBh6J29znMIgLWTdqvjRbtiGsswHGFAShZpZJUVymymwpphAqoym7cSbi4fZqegJEPKMlZFM6cEbaKZCF2Wyei2MSqzlEHqaLfsFRQiV6QKcDkYJQO7uQmJS1- -ltRsqmQuAmafnRMwgmsgCegBRJzyjjRSpw0nqlp24Cdsm7otLWwm-uHuCxr66JKNAWQoDFB1HiP17HpXj0CbfMCZ2Pmfn6bBS7i7RyzMaeUM0yXjlGG45z5W5_OVgCd7tvA-dHsYO_XBYB2Kcol5wcM9b7Yhi8f4bxkHb_0_mLBGF9wv7jzrIy3vgklTqGgNqlnmVJzS80kue_Y5ReBDbfZnfXaIJjI7nZJt6DFQ5jwgcaVl5YU_-R5w-6l_Wl]--></g></svg>